<svg xmlns="http://www.w3.org/2000/svg" version="1.1" xmlns:xlink="http://www.w3.org/1999/xlink" viewBox="0 0 11.017419639482192 3.609452763705555" width="200px" height="60px"><g transform="matrix(0.7475527224117142,0,0,0.7475527224117142,3.9260541802457087,1.351969881746756)"><g transform="matrix(1,0,0,1,0,0)" clip-path="url(#SvgjsClipPath138918)"><g clip-path="url(#SvgjsClipPath138916fb68e385-9d05-4b22-ae02-b24809b66271)"><path d=" M -1.4393681435245973 0.03600046870107143 L -2.642179929644528 0.03600046870107143 C -2.7232914506046506 0.18629103406826297 -2.7710307767208584 0.3523092053475049 -2.7821410570588156 0.5227289651808833 L -1.2589797314520372 0.5227289651808833 C -1.273887541574436 0.3471363497874663 -1.3362393504124201 0.17889714960924097 -1.4393681435245973 0.03600046870107143 Z" fill="#a4cb6a" transform="matrix(1,0,0,1,0,0)" fill-rule="nonzero"></path></g><g clip-path="url(#SvgjsClipPath138916fb68e385-9d05-4b22-ae02-b24809b66271)"><path d=" M -2.5231662731587834 -0.14171947573727983 L -1.603212056265061 -0.14171947573727983 C -1.7791808883642914 -0.2909185041558013 -2.002397577970092 -0.37281032927701396 -2.233103841320214 -0.3728087728598214 C -2.248714376980338 -0.3728087728598214 -2.2640580658770424 -0.3712076922792956 -2.2796686015371685 -0.3704071519890335 C -2.3710378102413037 -0.3058275881544081 -2.4529877251333985 -0.22886202425027125 -2.5231662731587834 -0.14171947573727983 Z" fill="#a4cb6a" transform="matrix(1,0,0,1,0,0)" fill-rule="nonzero"></path></g><g clip-path="url(#SvgjsClipPath138916fb68e385-9d05-4b22-ae02-b24809b66271)"><path d=" M -2.5143603299658936 1.36476392715569 C -2.446152010942669 1.4471808675777686 -2.367220869372506 1.5200990626042117 -2.2796686015371685 1.5815769224352088 C -2.2640580658770424 1.582377462725474 -2.248714376980338 1.5839785433059999 -2.233103841320214 1.5839785433059999 C -2.008731432895057 1.5840114246337054 -1.7912281827404204 1.5065774398007554 -1.6173549347263727 1.36476392715569 Z" fill="#a4cb6a" transform="matrix(1,0,0,1,0,0)" fill-rule="nonzero"></path></g><g clip-path="url(#SvgjsClipPath138916fb68e385-9d05-4b22-ae02-b24809b66271)"><path d=" M -1.4180204024509218 -0.14171947573727983 L -0.6589747839000304 -0.14171947573727983 C -0.8855111861209102 -0.4250689811762778 -1.2286959361129501 -0.5899096172791932 -1.5914707986745387 -0.5896217681393434 C -1.7568595201924768 -0.5897138597217948 -1.9204499172254623 -0.5553144345679155 -2.0717949728322473 -0.4886202681845137 C -1.820466496726052 -0.45159527690710605 -1.5895775357164463 -0.32908276698364103 -1.4180204024509218 -0.14171947573727983 Z" fill="#64c6c4" transform="matrix(1,0,0,1,0,0)" fill-rule="nonzero"></path></g><g clip-path="url(#SvgjsClipPath138916fb68e385-9d05-4b22-ae02-b24809b66271)"><path d=" M -1.4289611197511818 1.36476392715569 C -1.5991737619134427 1.5455294247661064 -1.825372838966261 1.6636117359790497 -2.070994432541985 1.6999234620124017 C -1.9196407046605888 1.7665755160595271 -1.7560499070593263 1.8009295835557912 -1.5906702583842767 1.8007915385855218 C -1.2331145342177627 1.8011610447682647 -0.8942469147538563 1.6411293423971602 -0.667380456947793 1.36476392715569 Z" fill="#64c6c4" transform="matrix(1,0,0,1,0,0)" fill-rule="nonzero"></path></g><g clip-path="url(#SvgjsClipPath138916fb68e385-9d05-4b22-ae02-b24809b66271)"><path d=" M -1.2852641376489997 0.03600046870107143 C -1.1958965799390338 0.18375292953593148 -1.1426842539907507 0.35052145621921205 -1.12995932133801 0.5227289651808833 L -0.40013342338171176 0.5227289651808833 C -0.4112437037196681 0.3523092053475049 -0.4589830298358777 0.18629103406826297 -0.5400945507959993 0.03600046870107143 Z" fill="#a4cb6a" transform="matrix(1,0,0,1,0,0)" fill-rule="nonzero"></path></g><g clip-path="url(#SvgjsClipPath138916fb68e385-9d05-4b22-ae02-b24809b66271)"><path d=" M -0.4008005402902626 0.7004489096192363 L -1.1304930148648478 0.7004489096192363 C -1.1452451267990076 0.8731545516642252 -1.2007074979923595 1.0399074516989835 -1.2923355768796538 1.1870439827173371 L -0.5474328367900725 1.1870439827173371 C -0.463863761284085 1.037391134041325 -0.4138307974554132 0.8713581776417161 -0.4008005402902626 0.7004489096192346 Z" fill="#a4cb6a" transform="matrix(1,0,0,1,0,0)" fill-rule="nonzero"></path></g><g clip-path="url(#SvgjsClipPath138916fb68e385-9d05-4b22-ae02-b24809b66271)"><path d=" M -2.7816073635319745 0.7004489096192363 C -2.7683475837056406 0.8713331362310226 -2.718280849440555 1.0373271179262675 -2.634841643650451 1.1870439827173371 L -1.4473735464272264 1.1870439827173371 C -1.3413934933167195 1.0450274186425157 -1.2761648629860296 0.8767892186311843 -1.2587128846886133 0.7004489096192346 Z" fill="#a4cb6a" transform="matrix(1,0,0,1,0,0)" fill-rule="nonzero"></path></g></g><g><path d=" M 0.6951759332187049 0.9980017316756771 L 0.8127252791493034 0.9980017316756771 L 0.7597891498560537 0.8282947289414355 L 0.39702096969937234 0.8282947289414355 L 0.3440848404061227 0.9980017316756771 L 0.4686404387431807 0.9980017316756771 L 0.4686404387431807 1.2113031938278889 L 0.021018757219378535 1.2113031938278889 L 0.021018757219378535 0.9980017316756771 L 0.10898614854492573 0.9980017316756771 L 0.4304952867524567 0.031138899584264523 L 0.7426627550847082 0.031138899584264523 L 1.0571656408857797 0.9980017316756771 L 1.142797614742507 0.9980017316756771 L 1.142797614742507 1.2113031938278889 L 0.6951759332187049 1.2113031938278889 L 0.6951759332187049 0.9980017316756771 M 0.4585202963782947 0.6290057716021428 L 0.6967328781979181 0.6290057716021428 L 0.5768481147984998 0.24521883422608282 L 0.4585202963782947 0.6290057716021428 M 1.72470580072345 0.6157717392788303 Q 1.7126394771345472 0.5986453445074849 1.689285302446349 0.5858005484289758 Q 1.6659311277581508 0.5729557523504667 1.632067574460263 0.5651710274544006 Q 1.5982040211623754 0.5573863025583344 1.5553880342340116 0.5573863025583344 Q 1.5390401119522727 0.5573863025583344 1.5203567722017142 0.5601109562719576 Q 1.5016734324511554 0.5628356099855807 1.48571474641422 0.5698418623920403 Q 1.4697560603772843 0.5768481147984997 1.459246681767595 0.5889144383874022 Q 1.4487373031579058 0.6009807619763048 1.4487373031579058 0.6196641017268635 Q 1.4487373031579058 0.6290057716021428 1.4514619568715288 0.6375689689878156 Q 1.454186610585152 0.6461321663734882 1.461971335481218 0.6539168912695544 Q 1.4697560603772843 0.6617016161656205 1.4833793289454 0.6683186323272767 Q 1.4970025975135157 0.674935648488933 1.518799827222501 0.678828010936966 L 1.665152655268544 0.7076314930524107 Q 1.7445568492084185 0.723200942844543 1.7982714509912747 0.7465551175327413 Q 1.851986052774131 0.7699092922209396 1.8846818973376087 0.8010481918052041 Q 1.9173777419010865 0.8321870913894687 1.9317794829588086 0.8703322433801927 Q 1.946181224016531 0.9084773953709167 1.946181224016531 0.9528503272784936 Q 1.946181224016531 1.022134378853482 1.9138746156978566 1.074292035657125 Q 1.8815680073791823 1.126449692460768 1.829021114330736 1.1610917182482623 Q 1.7764742212822897 1.1957337440357567 1.7106932959105308 1.2132493750519053 Q 1.644912370538772 1.2307650060680542 1.5779637364326033 1.2307650060680542 Q 1.534369277014633 1.2307650060680542 1.4989487787375322 1.2253156986408078 Q 1.4635282804604315 1.2198663912135617 1.4351140345897901 1.2105247213382822 Q 1.4066997887191488 1.2011830514630029 1.3845133227653603 1.188338255384494 Q 1.3623268568115718 1.1754934593059847 1.343643517061013 1.1599240095138525 L 1.2027399964422163 1.1599240095138525 L 1.2027399964422163 0.9435086574032142 L 1.4230477110008874 0.9435086574032142 L 1.4230477110008874 0.9481794923408539 Q 1.4238261834904942 0.9707551945394457 1.4370602158138066 0.9874923530659878 Q 1.450294248137119 1.00422951159253 1.4717022416013008 1.0159065989366292 Q 1.4931102350654828 1.0275836862807284 1.5203567722017142 1.033422229952778 Q 1.5476033093379455 1.0392607736248276 1.5779637364326033 1.0392607736248276 Q 1.6480262604971985 1.0392607736248276 1.6799436325710695 1.020966670119072 Q 1.7118610046449407 1.0026725666133167 1.7118610046449407 0.9738690844978721 Q 1.7118610046449407 0.9512933822992804 1.6962915548528086 0.9353346962623448 Q 1.6807221050606762 0.9193760102254092 1.641020008090739 0.9100343403501299 L 1.4915532900862694 0.8781169682762587 Q 1.3506497694674726 0.8508704311400273 1.2790303004236643 0.7874249232370885 Q 1.207410831379856 0.7239794153341494 1.207410831379856 0.6243349366645031 Q 1.207410831379856 0.5659494999440072 1.2346573685160873 0.5180734418332005 Q 1.2619039056523187 0.47019738372239384 1.3086122550287156 0.43633383042450624 Q 1.3553206044051123 0.40247027712661854 1.4179876398184446 0.38378693737605984 Q 1.4806546752317769 0.36510359762550115 1.5522741442755852 0.36510359762550115 Q 1.6013179111208018 0.36510359762550115 1.639463063111526 0.37094214129755076 Q 1.6776082151022498 0.3767806849696004 1.7079686421969078 0.38612235484487967 Q 1.7383290692915656 0.39546402472015907 1.7612940077349606 0.40830882079866815 Q 1.7842589461783556 0.42115361687717723 1.8021638134393076 0.4351661216900963 L 1.9376180266308585 0.4351661216900963 L 1.9376180266308585 0.6515814738007345 L 1.7367721243123524 0.6515814738007345 Q 1.7367721243123524 0.6328981340501758 1.72470580072345 0.6157717392788303 M 2.0629520974575226 0 L 2.4264987501038107 0 L 2.4264987501038107 0.6982898231771313 L 2.562731435784968 0.6982898231771313 L 2.618781455036644 0.6181071567476503 L 2.618781455036644 0.40480569459543836 L 3.0360427094657885 0.40480569459543836 L 3.0360427094657885 0.6181071567476503 L 2.8912468263989584 0.6181071567476503 L 2.7410016359048823 0.7917065219299249 L 2.894360716357385 0.9769829744562986 L 3.028257984569722 0.9769829744562986 L 3.028257984569722 1.2113031938278889 L 2.8095072149902642 1.2113031938278889 L 2.5479404584824423 0.8656614084425529 L 2.4264987501038107 0.8656614084425529 L 2.4264987501038107 0.9980017316756771 L 2.5090168340021117 0.9980017316756771 L 2.5090168340021117 1.2113031938278889 L 2.0629520974575226 1.2113031938278889 L 2.0629520974575226 0.9980017316756771 L 2.1875076957945807 0.9980017316756771 L 2.1875076957945807 0.2133014621522118 L 2.0629520974575226 0.2133014621522118 L 2.0629520974575226 0 M 4.023145826286973 0.031138899584264523 L 4.529152944531271 0.031138899584264523 L 4.529152944531271 0.24521883422608282 L 4.404597346194213 0.24521883422608282 L 4.404597346194213 0.9980017316756771 L 4.529152944531271 0.9980017316756771 L 4.529152944531271 1.2113031938278889 L 4.023145826286973 1.2113031938278889 L 4.023145826286973 0.9980017316756771 L 4.146144479644818 0.9980017316756771 L 4.146144479644818 0.6959544057083115 L 3.6136692967538946 0.6959544057083115 L 3.6136692967538946 0.9980017316756771 L 3.7382248950909527 0.9980017316756771 L 3.7382248950909527 1.2113031938278889 L 3.232996249336261 1.2113031938278889 L 3.232996249336261 0.9980017316756771 L 3.355216430204499 0.9980017316756771 L 3.355216430204499 0.24521883422608282 L 3.232996249336261 0.24521883422608282 L 3.232996249336261 0.031138899584264523 L 3.7382248950909527 0.031138899584264523 L 3.7382248950909527 0.24521883422608282 L 3.6136692967538946 0.24521883422608282 L 3.6136692967538946 0.49043766845216574 L 4.146144479644818 0.49043766845216574 L 4.146144479644818 0.24521883422608282 L 4.023145826286973 0.24521883422608282 L 4.023145826286973 0.031138899584264523 M 4.677841190046133 0.40480569459543836 L 5.039830897713209 0.40480569459543836 L 5.039830897713209 0.9980017316756771 L 5.15193093621656 0.9980017316756771 L 5.15193093621656 1.2113031938278889 L 4.677841190046133 1.2113031938278889 L 4.677841190046133 0.9980017316756771 L 4.7992828984247655 0.9980017316756771 L 4.7992828984247655 0.6181071567476503 L 4.677841190046133 0.6181071567476503 L 4.677841190046133 0.40480569459543836 M 4.78682733859106 0.1447958830668299 Q 4.78682733859106 0.1159924009513853 4.797336717200749 0.09069204503917039 Q 4.807846095810438 0.06539168912695548 4.826529435560997 0.046708349376396674 Q 4.8452127753115555 0.028025009625838093 4.87051313122377 0.017126394771345366 Q 4.895813487135985 0.00622777991685286 4.925395441741037 0.00622777991685286 Q 4.953420451366875 0.00622777991685286 4.978331571034286 0.017126394771345366 Q 5.003242690701698 0.028025009625838093 5.021926030452256 0.046708349376396674 Q 5.040609370202815 0.06539168912695548 5.051507985057308 0.09069204503917039 Q 5.0624065999118 0.1159924009513853 5.0624065999118 0.1447958830668299 Q 5.0624065999118 0.17359936518227448 5.051507985057308 0.1988997210944894 Q 5.040609370202815 0.2242000770067043 5.021926030452256 0.242883416757263 Q 5.003242690701698 0.2615667565078217 4.978331571034286 0.2724653713623143 Q 4.953420451366875 0.2833639862168069 4.925395441741037 0.2833639862168069 Q 4.895813487135985 0.2833639862168069 4.87051313122377 0.2724653713623143 Q 4.8452127753115555 0.2615667565078217 4.826529435560997 0.242883416757263 Q 4.807846095810438 0.2242000770067043 4.797336717200749 0.1988997210944894 Q 4.78682733859106 0.17359936518227448 4.78682733859106 0.1447958830668299 M 6.023820124575967 0.6982898231771313 L 5.805069354996509 0.6982898231771313 L 5.805069354996509 0.6149932667892237 Q 5.773151982922638 0.6149932667892237 5.746683918276013 0.6192748654820601 Q 5.720215853629388 0.6235564641748965 5.70036480514442 0.6336766065397824 Q 5.680513756659451 0.6437967489046684 5.666890488091335 0.6617016161656205 Q 5.65326721952322 0.6796064834265726 5.647817912095974 0.7060745480731974 L 5.647817912095974 0.9980017316756771 L 5.812075607402969 0.9980017316756771 L 5.812075607402969 1.2113031938278889 L 5.285828204428898 1.2113031938278889 L 5.285828204428898 0.9980017316756771 L 5.406491440317923 0.9980017316756771 L 5.406491440317923 0.6181071567476503 L 5.287385149408112 0.6181071567476503 L 5.287385149408112 0.40480569459543836 L 5.64626096711676 0.40480569459543836 L 5.64626096711676 0.46163418633672115 Q 5.680513756659451 0.43438764920048967 5.723329743587815 0.419596671897964 Q 5.766145730516178 0.40480569459543836 5.816746442340608 0.40480569459543836 Q 5.868125626654645 0.40480569459543836 5.922618700927107 0.4055841670850451 Q 5.97711177519957 0.4063626395746517 6.023820124575967 0.4063626395746517 L 6.023820124575967 0.6982898231771313 M 6.364791075023663 0.8586551560360934 L 6.367126492492483 0.8827878032138985 Q 6.375689689878156 0.9178190652461959 6.396319210852731 0.9442871298928208 Q 6.416948731827306 0.9707551945394457 6.444973741453144 0.9886600618003978 Q 6.472998751078983 1.0065649290613499 6.507251540621673 1.015517362691826 Q 6.541504330164364 1.024469796322302 6.576535592196662 1.024469796322302 Q 6.611566854228959 1.024469796322302 6.643094990058027 1.0201881976294656 Q 6.674623125887095 1.0159065989366292 6.704205080492146 1.0085111102853663 Q 6.733787035097198 1.0011156216341035 6.761812044723036 0.9913847155140209 Q 6.789837054348873 0.9816538093939382 6.818640536464319 0.9707551945394457 L 6.904272510321046 1.1303420549088012 Q 6.859899578413469 1.1575885920450326 6.822922135157155 1.1766611680403947 Q 6.78594469190084 1.1957337440357567 6.748578012399723 1.2081893038694624 Q 6.711211332898606 1.2206448637031682 6.669173818459849 1.2264834073752178 Q 6.627136304021091 1.2323219510472674 6.571086284769415 1.2323219510472674 Q 6.465992498672523 1.2323219510472674 6.384252887263829 1.1976799252597732 Q 6.3025132758551345 1.163037899472279 6.246852492848261 1.1038739902621764 Q 6.191191709841388 1.0447100810520737 6.16199899148114 0.9653058871121993 Q 6.1328062731208925 0.8859016931723249 6.1328062731208925 0.797155829357171 Q 6.1328062731208925 0.7084099655420173 6.163555936460354 0.630562716581356 Q 6.194305599799815 0.5527154676206948 6.250355619051491 0.49471926714500214 Q 6.3064056383031675 0.4367230666693095 6.384252887263829 0.40324874961622514 Q 6.46210013622449 0.3697744325631408 6.557073779956497 0.3697744325631408 Q 6.652047423688503 0.3697744325631408 6.725613073956328 0.4013025683922087 Q 6.799178724224153 0.43283070422127645 6.849779436048583 0.4884914872281493 Q 6.900380147873013 0.544152270235022 6.927626685009244 0.6192748654820601 Q 6.954873222145475 0.6943974607290982 6.957208639614295 0.7808079070754321 Q 6.959544057083115 0.8002697193155975 6.959933293327918 0.8193422953109595 Q 6.960322529572721 0.8384148713063215 6.958765584593508 0.8586551560360934 L 6.364791075023663 0.8586551560360934 M 6.550846000039644 0.5643925549647939 Q 6.507251540621673 0.5643925549647939 6.476501877282212 0.5749019335744833 Q 6.445752213942751 0.5854113121841725 6.424733456723373 0.6037054156899279 Q 6.403714699503994 0.6219995191956833 6.391259139670288 0.6453536938838816 Q 6.378803579836582 0.66870786857208 6.371797327430123 0.6943974607290982 L 6.708875915429786 0.6943974607290982 Q 6.703426608002539 0.6679293960824734 6.6933064656376535 0.644575221394275 Q 6.683186323272768 0.6212210467060767 6.665281456011815 0.6033161794451246 Q 6.647376588750864 0.5854113121841725 6.619740815369829 0.5749019335744833 Q 6.592105041988794 0.5643925549647939 6.550846000039644 0.5643925549647939" fill="blue" fill-rule="nonzero"></path></g><g></g></g><defs></defs></svg>
